<?xml version="1.0" encoding="utf-8" standalone="no"?>
<!DOCTYPE svg PUBLIC "-//W3C//DTD SVG 1.1//EN"
  "http://www.w3.org/Graphics/SVG/1.1/DTD/svg11.dtd">
<svg xmlns:xlink="http://www.w3.org/1999/xlink" width="492.612577pt" height="454.018125pt" viewBox="0 0 492.612577 454.018125" xmlns="http://www.w3.org/2000/svg" version="1.1">
 <metadata>
  <rdf:RDF xmlns:dc="http://purl.org/dc/elements/1.1/" xmlns:cc="http://creativecommons.org/ns#" xmlns:rdf="http://www.w3.org/1999/02/22-rdf-syntax-ns#">
   <cc:Work>
    <dc:type rdf:resource="http://purl.org/dc/dcmitype/StillImage"/>
    <dc:date>2026-02-19T19:30:05.252884</dc:date>
    <dc:format>image/svg+xml</dc:format>
    <dc:creator>
     <cc:Agent>
      <dc:title>Matplotlib v3.10.7, https://matplotlib.org/</dc:title>
     </cc:Agent>
    </dc:creator>
   </cc:Work>
  </rdf:RDF>
 </metadata>
 <defs>
  <style type="text/css">*{stroke-linejoin: round; stroke-linecap: butt}</style>
 </defs>
 <g id="figure_1">
  <g id="patch_1">
   <path d="M 0 454.018125 
L 492.612577 454.018125 
L 492.612577 0 
L 0 0 
z
" style="fill: #ffffff"/>
  </g>
  <g id="axes_1">
   <g id="patch_2">
    <path d="M 52.160938 416.461875 
L 485.002362 416.461875 
L 485.002362 28.381875 
L 52.160938 28.381875 
z
" style="fill: #ffffff"/>
   </g>
   <g id="matplotlib.axis_1">
    <g id="xtick_1">
     <g id="line2d_1">
      <path d="M 72.413322 416.461875 
L 72.413322 28.381875 
" clip-path="url(#p329e2539cc)" style="fill: none; stroke-dasharray: 2.22,0.96; stroke-dashoffset: 0; stroke: #b0b0b0; stroke-width: 0.6"/>
     </g>
     <g id="line2d_2">
      <defs>
       <path id="m452be04eed" d="M 0 0 
L 0 3.5 
" style="stroke: #000000; stroke-width: 0.8"/>
      </defs>
      <g>
       <use xlink:href="#m452be04eed" x="72.413322" y="416.461875" style="stroke: #000000; stroke-width: 0.8"/>
      </g>
     </g>
     <g id="text_1">
      <!-- −1.0 -->
      <g transform="translate(60.271916 431.060312) scale(0.1 -0.1)">
       <defs>
        <path id="DejaVuSans-2212" d="M 678 2272 
L 4684 2272 
L 4684 1741 
L 678 1741 
L 678 2272 
z
" transform="scale(0.015625)"/>
        <path id="DejaVuSans-31" d="M 794 531 
L 1825 531 
L 1825 4091 
L 703 3866 
L 703 4441 
L 1819 4666 
L 2450 4666 
L 2450 531 
L 3481 531 
L 3481 0 
L 794 0 
L 794 531 
z
" transform="scale(0.015625)"/>
        <path id="DejaVuSans-2e" d="M 684 794 
L 1344 794 
L 1344 0 
L 684 0 
L 684 794 
z
" transform="scale(0.015625)"/>
        <path id="DejaVuSans-30" d="M 2034 4250 
Q 1547 4250 1301 3770 
Q 1056 3291 1056 2328 
Q 1056 1369 1301 889 
Q 1547 409 2034 409 
Q 2525 409 2770 889 
Q 3016 1369 3016 2328 
Q 3016 3291 2770 3770 
Q 2525 4250 2034 4250 
z
M 2034 4750 
Q 2819 4750 3233 4129 
Q 3647 3509 3647 2328 
Q 3647 1150 3233 529 
Q 2819 -91 2034 -91 
Q 1250 -91 836 529 
Q 422 1150 422 2328 
Q 422 3509 836 4129 
Q 1250 4750 2034 4750 
z
" transform="scale(0.015625)"/>
       </defs>
       <use xlink:href="#DejaVuSans-2212"/>
       <use xlink:href="#DejaVuSans-31" transform="translate(83.789062 0)"/>
       <use xlink:href="#DejaVuSans-2e" transform="translate(147.412109 0)"/>
       <use xlink:href="#DejaVuSans-30" transform="translate(179.199219 0)"/>
      </g>
     </g>
    </g>
    <g id="xtick_2">
     <g id="line2d_3">
      <path d="M 123.044284 416.461875 
L 123.044284 28.381875 
" clip-path="url(#p329e2539cc)" style="fill: none; stroke-dasharray: 2.22,0.96; stroke-dashoffset: 0; stroke: #b0b0b0; stroke-width: 0.6"/>
     </g>
     <g id="line2d_4">
      <g>
       <use xlink:href="#m452be04eed" x="123.044284" y="416.461875" style="stroke: #000000; stroke-width: 0.8"/>
      </g>
     </g>
     <g id="text_2">
      <!-- −0.5 -->
      <g transform="translate(110.902877 431.060312) scale(0.1 -0.1)">
       <defs>
        <path id="DejaVuSans-35" d="M 691 4666 
L 3169 4666 
L 3169 4134 
L 1269 4134 
L 1269 2991 
Q 1406 3038 1543 3061 
Q 1681 3084 1819 3084 
Q 2600 3084 3056 2656 
Q 3513 2228 3513 1497 
Q 3513 744 3044 326 
Q 2575 -91 1722 -91 
Q 1428 -91 1123 -41 
Q 819 9 494 109 
L 494 744 
Q 775 591 1075 516 
Q 1375 441 1709 441 
Q 2250 441 2565 725 
Q 2881 1009 2881 1497 
Q 2881 1984 2565 2268 
Q 2250 2553 1709 2553 
Q 1456 2553 1204 2497 
Q 953 2441 691 2322 
L 691 4666 
z
" transform="scale(0.015625)"/>
       </defs>
       <use xlink:href="#DejaVuSans-2212"/>
       <use xlink:href="#DejaVuSans-30" transform="translate(83.789062 0)"/>
       <use xlink:href="#DejaVuSans-2e" transform="translate(147.412109 0)"/>
       <use xlink:href="#DejaVuSans-35" transform="translate(179.199219 0)"/>
      </g>
     </g>
    </g>
    <g id="xtick_3">
     <g id="line2d_5">
      <path d="M 173.675245 416.461875 
L 173.675245 28.381875 
" clip-path="url(#p329e2539cc)" style="fill: none; stroke-dasharray: 2.22,0.96; stroke-dashoffset: 0; stroke: #b0b0b0; stroke-width: 0.6"/>
     </g>
     <g id="line2d_6">
      <g>
       <use xlink:href="#m452be04eed" x="173.675245" y="416.461875" style="stroke: #000000; stroke-width: 0.8"/>
      </g>
     </g>
     <g id="text_3">
      <!-- 0.0 -->
      <g transform="translate(165.723683 431.060312) scale(0.1 -0.1)">
       <use xlink:href="#DejaVuSans-30"/>
       <use xlink:href="#DejaVuSans-2e" transform="translate(63.623047 0)"/>
       <use xlink:href="#DejaVuSans-30" transform="translate(95.410156 0)"/>
      </g>
     </g>
    </g>
    <g id="xtick_4">
     <g id="line2d_7">
      <path d="M 224.306207 416.461875 
L 224.306207 28.381875 
" clip-path="url(#p329e2539cc)" style="fill: none; stroke-dasharray: 2.22,0.96; stroke-dashoffset: 0; stroke: #b0b0b0; stroke-width: 0.6"/>
     </g>
     <g id="line2d_8">
      <g>
       <use xlink:href="#m452be04eed" x="224.306207" y="416.461875" style="stroke: #000000; stroke-width: 0.8"/>
      </g>
     </g>
     <g id="text_4">
      <!-- 0.5 -->
      <g transform="translate(216.354644 431.060312) scale(0.1 -0.1)">
       <use xlink:href="#DejaVuSans-30"/>
       <use xlink:href="#DejaVuSans-2e" transform="translate(63.623047 0)"/>
       <use xlink:href="#DejaVuSans-35" transform="translate(95.410156 0)"/>
      </g>
     </g>
    </g>
    <g id="xtick_5">
     <g id="line2d_9">
      <path d="M 274.937168 416.461875 
L 274.937168 28.381875 
" clip-path="url(#p329e2539cc)" style="fill: none; stroke-dasharray: 2.22,0.96; stroke-dashoffset: 0; stroke: #b0b0b0; stroke-width: 0.6"/>
     </g>
     <g id="line2d_10">
      <g>
       <use xlink:href="#m452be04eed" x="274.937168" y="416.461875" style="stroke: #000000; stroke-width: 0.8"/>
      </g>
     </g>
     <g id="text_5">
      <!-- 1.0 -->
      <g transform="translate(266.985606 431.060312) scale(0.1 -0.1)">
       <use xlink:href="#DejaVuSans-31"/>
       <use xlink:href="#DejaVuSans-2e" transform="translate(63.623047 0)"/>
       <use xlink:href="#DejaVuSans-30" transform="translate(95.410156 0)"/>
      </g>
     </g>
    </g>
    <g id="xtick_6">
     <g id="line2d_11">
      <path d="M 325.56813 416.461875 
L 325.56813 28.381875 
" clip-path="url(#p329e2539cc)" style="fill: none; stroke-dasharray: 2.22,0.96; stroke-dashoffset: 0; stroke: #b0b0b0; stroke-width: 0.6"/>
     </g>
     <g id="line2d_12">
      <g>
       <use xlink:href="#m452be04eed" x="325.56813" y="416.461875" style="stroke: #000000; stroke-width: 0.8"/>
      </g>
     </g>
     <g id="text_6">
      <!-- 1.5 -->
      <g transform="translate(317.616567 431.060312) scale(0.1 -0.1)">
       <use xlink:href="#DejaVuSans-31"/>
       <use xlink:href="#DejaVuSans-2e" transform="translate(63.623047 0)"/>
       <use xlink:href="#DejaVuSans-35" transform="translate(95.410156 0)"/>
      </g>
     </g>
    </g>
    <g id="xtick_7">
     <g id="line2d_13">
      <path d="M 376.199091 416.461875 
L 376.199091 28.381875 
" clip-path="url(#p329e2539cc)" style="fill: none; stroke-dasharray: 2.22,0.96; stroke-dashoffset: 0; stroke: #b0b0b0; stroke-width: 0.6"/>
     </g>
     <g id="line2d_14">
      <g>
       <use xlink:href="#m452be04eed" x="376.199091" y="416.461875" style="stroke: #000000; stroke-width: 0.8"/>
      </g>
     </g>
     <g id="text_7">
      <!-- 2.0 -->
      <g transform="translate(368.247529 431.060312) scale(0.1 -0.1)">
       <defs>
        <path id="DejaVuSans-32" d="M 1228 531 
L 3431 531 
L 3431 0 
L 469 0 
L 469 531 
Q 828 903 1448 1529 
Q 2069 2156 2228 2338 
Q 2531 2678 2651 2914 
Q 2772 3150 2772 3378 
Q 2772 3750 2511 3984 
Q 2250 4219 1831 4219 
Q 1534 4219 1204 4116 
Q 875 4013 500 3803 
L 500 4441 
Q 881 4594 1212 4672 
Q 1544 4750 1819 4750 
Q 2544 4750 2975 4387 
Q 3406 4025 3406 3419 
Q 3406 3131 3298 2873 
Q 3191 2616 2906 2266 
Q 2828 2175 2409 1742 
Q 1991 1309 1228 531 
z
" transform="scale(0.015625)"/>
       </defs>
       <use xlink:href="#DejaVuSans-32"/>
       <use xlink:href="#DejaVuSans-2e" transform="translate(63.623047 0)"/>
       <use xlink:href="#DejaVuSans-30" transform="translate(95.410156 0)"/>
      </g>
     </g>
    </g>
    <g id="xtick_8">
     <g id="line2d_15">
      <path d="M 426.830053 416.461875 
L 426.830053 28.381875 
" clip-path="url(#p329e2539cc)" style="fill: none; stroke-dasharray: 2.22,0.96; stroke-dashoffset: 0; stroke: #b0b0b0; stroke-width: 0.6"/>
     </g>
     <g id="line2d_16">
      <g>
       <use xlink:href="#m452be04eed" x="426.830053" y="416.461875" style="stroke: #000000; stroke-width: 0.8"/>
      </g>
     </g>
     <g id="text_8">
      <!-- 2.5 -->
      <g transform="translate(418.87849 431.060312) scale(0.1 -0.1)">
       <use xlink:href="#DejaVuSans-32"/>
       <use xlink:href="#DejaVuSans-2e" transform="translate(63.623047 0)"/>
       <use xlink:href="#DejaVuSans-35" transform="translate(95.410156 0)"/>
      </g>
     </g>
    </g>
    <g id="xtick_9">
     <g id="line2d_17">
      <path d="M 477.461014 416.461875 
L 477.461014 28.381875 
" clip-path="url(#p329e2539cc)" style="fill: none; stroke-dasharray: 2.22,0.96; stroke-dashoffset: 0; stroke: #b0b0b0; stroke-width: 0.6"/>
     </g>
     <g id="line2d_18">
      <g>
       <use xlink:href="#m452be04eed" x="477.461014" y="416.461875" style="stroke: #000000; stroke-width: 0.8"/>
      </g>
     </g>
     <g id="text_9">
      <!-- 3.0 -->
      <g transform="translate(469.509452 431.060312) scale(0.1 -0.1)">
       <defs>
        <path id="DejaVuSans-33" d="M 2597 2516 
Q 3050 2419 3304 2112 
Q 3559 1806 3559 1356 
Q 3559 666 3084 287 
Q 2609 -91 1734 -91 
Q 1441 -91 1130 -33 
Q 819 25 488 141 
L 488 750 
Q 750 597 1062 519 
Q 1375 441 1716 441 
Q 2309 441 2620 675 
Q 2931 909 2931 1356 
Q 2931 1769 2642 2001 
Q 2353 2234 1838 2234 
L 1294 2234 
L 1294 2753 
L 1863 2753 
Q 2328 2753 2575 2939 
Q 2822 3125 2822 3475 
Q 2822 3834 2567 4026 
Q 2313 4219 1838 4219 
Q 1578 4219 1281 4162 
Q 984 4106 628 3988 
L 628 4550 
Q 988 4650 1302 4700 
Q 1616 4750 1894 4750 
Q 2613 4750 3031 4423 
Q 3450 4097 3450 3541 
Q 3450 3153 3228 2886 
Q 3006 2619 2597 2516 
z
" transform="scale(0.015625)"/>
       </defs>
       <use xlink:href="#DejaVuSans-33"/>
       <use xlink:href="#DejaVuSans-2e" transform="translate(63.623047 0)"/>
       <use xlink:href="#DejaVuSans-30" transform="translate(95.410156 0)"/>
      </g>
     </g>
    </g>
    <g id="text_10">
     <!-- X (field) -->
     <g transform="translate(248.876962 444.738437) scale(0.1 -0.1)">
      <defs>
       <path id="DejaVuSans-58" d="M 403 4666 
L 1081 4666 
L 2241 2931 
L 3406 4666 
L 4084 4666 
L 2584 2425 
L 4184 0 
L 3506 0 
L 2194 1984 
L 872 0 
L 191 0 
L 1856 2491 
L 403 4666 
z
" transform="scale(0.015625)"/>
       <path id="DejaVuSans-20" transform="scale(0.015625)"/>
       <path id="DejaVuSans-28" d="M 1984 4856 
Q 1566 4138 1362 3434 
Q 1159 2731 1159 2009 
Q 1159 1288 1364 580 
Q 1569 -128 1984 -844 
L 1484 -844 
Q 1016 -109 783 600 
Q 550 1309 550 2009 
Q 550 2706 781 3412 
Q 1013 4119 1484 4856 
L 1984 4856 
z
" transform="scale(0.015625)"/>
       <path id="DejaVuSans-66" d="M 2375 4863 
L 2375 4384 
L 1825 4384 
Q 1516 4384 1395 4259 
Q 1275 4134 1275 3809 
L 1275 3500 
L 2222 3500 
L 2222 3053 
L 1275 3053 
L 1275 0 
L 697 0 
L 697 3053 
L 147 3053 
L 147 3500 
L 697 3500 
L 697 3744 
Q 697 4328 969 4595 
Q 1241 4863 1831 4863 
L 2375 4863 
z
" transform="scale(0.015625)"/>
       <path id="DejaVuSans-69" d="M 603 3500 
L 1178 3500 
L 1178 0 
L 603 0 
L 603 3500 
z
M 603 4863 
L 1178 4863 
L 1178 4134 
L 603 4134 
L 603 4863 
z
" transform="scale(0.015625)"/>
       <path id="DejaVuSans-65" d="M 3597 1894 
L 3597 1613 
L 953 1613 
Q 991 1019 1311 708 
Q 1631 397 2203 397 
Q 2534 397 2845 478 
Q 3156 559 3463 722 
L 3463 178 
Q 3153 47 2828 -22 
Q 2503 -91 2169 -91 
Q 1331 -91 842 396 
Q 353 884 353 1716 
Q 353 2575 817 3079 
Q 1281 3584 2069 3584 
Q 2775 3584 3186 3129 
Q 3597 2675 3597 1894 
z
M 3022 2063 
Q 3016 2534 2758 2815 
Q 2500 3097 2075 3097 
Q 1594 3097 1305 2825 
Q 1016 2553 972 2059 
L 3022 2063 
z
" transform="scale(0.015625)"/>
       <path id="DejaVuSans-6c" d="M 603 4863 
L 1178 4863 
L 1178 0 
L 603 0 
L 603 4863 
z
" transform="scale(0.015625)"/>
       <path id="DejaVuSans-64" d="M 2906 2969 
L 2906 4863 
L 3481 4863 
L 3481 0 
L 2906 0 
L 2906 525 
Q 2725 213 2448 61 
Q 2172 -91 1784 -91 
Q 1150 -91 751 415 
Q 353 922 353 1747 
Q 353 2572 751 3078 
Q 1150 3584 1784 3584 
Q 2172 3584 2448 3432 
Q 2725 3281 2906 2969 
z
M 947 1747 
Q 947 1113 1208 752 
Q 1469 391 1925 391 
Q 2381 391 2643 752 
Q 2906 1113 2906 1747 
Q 2906 2381 2643 2742 
Q 2381 3103 1925 3103 
Q 1469 3103 1208 2742 
Q 947 2381 947 1747 
z
" transform="scale(0.015625)"/>
       <path id="DejaVuSans-29" d="M 513 4856 
L 1013 4856 
Q 1481 4119 1714 3412 
Q 1947 2706 1947 2009 
Q 1947 1309 1714 600 
Q 1481 -109 1013 -844 
L 513 -844 
Q 928 -128 1133 580 
Q 1338 1288 1338 2009 
Q 1338 2731 1133 3434 
Q 928 4138 513 4856 
z
" transform="scale(0.015625)"/>
      </defs>
      <use xlink:href="#DejaVuSans-58"/>
      <use xlink:href="#DejaVuSans-20" transform="translate(68.505859 0)"/>
      <use xlink:href="#DejaVuSans-28" transform="translate(100.292969 0)"/>
      <use xlink:href="#DejaVuSans-66" transform="translate(139.306641 0)"/>
      <use xlink:href="#DejaVuSans-69" transform="translate(174.511719 0)"/>
      <use xlink:href="#DejaVuSans-65" transform="translate(202.294922 0)"/>
      <use xlink:href="#DejaVuSans-6c" transform="translate(263.818359 0)"/>
      <use xlink:href="#DejaVuSans-64" transform="translate(291.601562 0)"/>
      <use xlink:href="#DejaVuSans-29" transform="translate(355.078125 0)"/>
     </g>
    </g>
   </g>
   <g id="matplotlib.axis_2">
    <g id="ytick_1">
     <g id="line2d_19">
      <path d="M 52.160938 396.20949 
L 485.002362 396.20949 
" clip-path="url(#p329e2539cc)" style="fill: none; stroke-dasharray: 2.22,0.96; stroke-dashoffset: 0; stroke: #b0b0b0; stroke-width: 0.6"/>
     </g>
     <g id="line2d_20">
      <defs>
       <path id="m025e2a40b9" d="M 0 0 
L -3.5 0 
" style="stroke: #000000; stroke-width: 0.8"/>
      </defs>
      <g>
       <use xlink:href="#m025e2a40b9" x="52.160938" y="396.20949" style="stroke: #000000; stroke-width: 0.8"/>
      </g>
     </g>
     <g id="text_11">
      <!-- −1.0 -->
      <g transform="translate(20.878125 400.008709) scale(0.1 -0.1)">
       <use xlink:href="#DejaVuSans-2212"/>
       <use xlink:href="#DejaVuSans-31" transform="translate(83.789062 0)"/>
       <use xlink:href="#DejaVuSans-2e" transform="translate(147.412109 0)"/>
       <use xlink:href="#DejaVuSans-30" transform="translate(179.199219 0)"/>
      </g>
     </g>
    </g>
    <g id="ytick_2">
     <g id="line2d_21">
      <path d="M 52.160938 345.578529 
L 485.002362 345.578529 
" clip-path="url(#p329e2539cc)" style="fill: none; stroke-dasharray: 2.22,0.96; stroke-dashoffset: 0; stroke: #b0b0b0; stroke-width: 0.6"/>
     </g>
     <g id="line2d_22">
      <g>
       <use xlink:href="#m025e2a40b9" x="52.160938" y="345.578529" style="stroke: #000000; stroke-width: 0.8"/>
      </g>
     </g>
     <g id="text_12">
      <!-- −0.5 -->
      <g transform="translate(20.878125 349.377748) scale(0.1 -0.1)">
       <use xlink:href="#DejaVuSans-2212"/>
       <use xlink:href="#DejaVuSans-30" transform="translate(83.789062 0)"/>
       <use xlink:href="#DejaVuSans-2e" transform="translate(147.412109 0)"/>
       <use xlink:href="#DejaVuSans-35" transform="translate(179.199219 0)"/>
      </g>
     </g>
    </g>
    <g id="ytick_3">
     <g id="line2d_23">
      <path d="M 52.160938 294.947567 
L 485.002362 294.947567 
" clip-path="url(#p329e2539cc)" style="fill: none; stroke-dasharray: 2.22,0.96; stroke-dashoffset: 0; stroke: #b0b0b0; stroke-width: 0.6"/>
     </g>
     <g id="line2d_24">
      <g>
       <use xlink:href="#m025e2a40b9" x="52.160938" y="294.947567" style="stroke: #000000; stroke-width: 0.8"/>
      </g>
     </g>
     <g id="text_13">
      <!-- 0.0 -->
      <g transform="translate(29.257813 298.746786) scale(0.1 -0.1)">
       <use xlink:href="#DejaVuSans-30"/>
       <use xlink:href="#DejaVuSans-2e" transform="translate(63.623047 0)"/>
       <use xlink:href="#DejaVuSans-30" transform="translate(95.410156 0)"/>
      </g>
     </g>
    </g>
    <g id="ytick_4">
     <g id="line2d_25">
      <path d="M 52.160938 244.316606 
L 485.002362 244.316606 
" clip-path="url(#p329e2539cc)" style="fill: none; stroke-dasharray: 2.22,0.96; stroke-dashoffset: 0; stroke: #b0b0b0; stroke-width: 0.6"/>
     </g>
     <g id="line2d_26">
      <g>
       <use xlink:href="#m025e2a40b9" x="52.160938" y="244.316606" style="stroke: #000000; stroke-width: 0.8"/>
      </g>
     </g>
     <g id="text_14">
      <!-- 0.5 -->
      <g transform="translate(29.257813 248.115825) scale(0.1 -0.1)">
       <use xlink:href="#DejaVuSans-30"/>
       <use xlink:href="#DejaVuSans-2e" transform="translate(63.623047 0)"/>
       <use xlink:href="#DejaVuSans-35" transform="translate(95.410156 0)"/>
      </g>
     </g>
    </g>
    <g id="ytick_5">
     <g id="line2d_27">
      <path d="M 52.160938 193.685644 
L 485.002362 193.685644 
" clip-path="url(#p329e2539cc)" style="fill: none; stroke-dasharray: 2.22,0.96; stroke-dashoffset: 0; stroke: #b0b0b0; stroke-width: 0.6"/>
     </g>
     <g id="line2d_28">
      <g>
       <use xlink:href="#m025e2a40b9" x="52.160938" y="193.685644" style="stroke: #000000; stroke-width: 0.8"/>
      </g>
     </g>
     <g id="text_15">
      <!-- 1.0 -->
      <g transform="translate(29.257813 197.484863) scale(0.1 -0.1)">
       <use xlink:href="#DejaVuSans-31"/>
       <use xlink:href="#DejaVuSans-2e" transform="translate(63.623047 0)"/>
       <use xlink:href="#DejaVuSans-30" transform="translate(95.410156 0)"/>
      </g>
     </g>
    </g>
    <g id="ytick_6">
     <g id="line2d_29">
      <path d="M 52.160938 143.054683 
L 485.002362 143.054683 
" clip-path="url(#p329e2539cc)" style="fill: none; stroke-dasharray: 2.22,0.96; stroke-dashoffset: 0; stroke: #b0b0b0; stroke-width: 0.6"/>
     </g>
     <g id="line2d_30">
      <g>
       <use xlink:href="#m025e2a40b9" x="52.160938" y="143.054683" style="stroke: #000000; stroke-width: 0.8"/>
      </g>
     </g>
     <g id="text_16">
      <!-- 1.5 -->
      <g transform="translate(29.257813 146.853901) scale(0.1 -0.1)">
       <use xlink:href="#DejaVuSans-31"/>
       <use xlink:href="#DejaVuSans-2e" transform="translate(63.623047 0)"/>
       <use xlink:href="#DejaVuSans-35" transform="translate(95.410156 0)"/>
      </g>
     </g>
    </g>
    <g id="ytick_7">
     <g id="line2d_31">
      <path d="M 52.160938 92.423721 
L 485.002362 92.423721 
" clip-path="url(#p329e2539cc)" style="fill: none; stroke-dasharray: 2.22,0.96; stroke-dashoffset: 0; stroke: #b0b0b0; stroke-width: 0.6"/>
     </g>
     <g id="line2d_32">
      <g>
       <use xlink:href="#m025e2a40b9" x="52.160938" y="92.423721" style="stroke: #000000; stroke-width: 0.8"/>
      </g>
     </g>
     <g id="text_17">
      <!-- 2.0 -->
      <g transform="translate(29.257813 96.22294) scale(0.1 -0.1)">
       <use xlink:href="#DejaVuSans-32"/>
       <use xlink:href="#DejaVuSans-2e" transform="translate(63.623047 0)"/>
       <use xlink:href="#DejaVuSans-30" transform="translate(95.410156 0)"/>
      </g>
     </g>
    </g>
    <g id="ytick_8">
     <g id="line2d_33">
      <path d="M 52.160938 41.79276 
L 485.002362 41.79276 
" clip-path="url(#p329e2539cc)" style="fill: none; stroke-dasharray: 2.22,0.96; stroke-dashoffset: 0; stroke: #b0b0b0; stroke-width: 0.6"/>
     </g>
     <g id="line2d_34">
      <g>
       <use xlink:href="#m025e2a40b9" x="52.160938" y="41.79276" style="stroke: #000000; stroke-width: 0.8"/>
      </g>
     </g>
     <g id="text_18">
      <!-- 2.5 -->
      <g transform="translate(29.257813 45.591978) scale(0.1 -0.1)">
       <use xlink:href="#DejaVuSans-32"/>
       <use xlink:href="#DejaVuSans-2e" transform="translate(63.623047 0)"/>
       <use xlink:href="#DejaVuSans-35" transform="translate(95.410156 0)"/>
      </g>
     </g>
    </g>
    <g id="text_19">
     <!-- Y (field) -->
     <g transform="translate(14.798438 241.755469) rotate(-90) scale(0.1 -0.1)">
      <defs>
       <path id="DejaVuSans-59" d="M -13 4666 
L 666 4666 
L 1959 2747 
L 3244 4666 
L 3922 4666 
L 2272 2222 
L 2272 0 
L 1638 0 
L 1638 2222 
L -13 4666 
z
" transform="scale(0.015625)"/>
      </defs>
      <use xlink:href="#DejaVuSans-59"/>
      <use xlink:href="#DejaVuSans-20" transform="translate(61.083984 0)"/>
      <use xlink:href="#DejaVuSans-28" transform="translate(92.871094 0)"/>
      <use xlink:href="#DejaVuSans-66" transform="translate(131.884766 0)"/>
      <use xlink:href="#DejaVuSans-69" transform="translate(167.089844 0)"/>
      <use xlink:href="#DejaVuSans-65" transform="translate(194.873047 0)"/>
      <use xlink:href="#DejaVuSans-6c" transform="translate(256.396484 0)"/>
      <use xlink:href="#DejaVuSans-64" transform="translate(284.179688 0)"/>
      <use xlink:href="#DejaVuSans-29" transform="translate(347.65625 0)"/>
     </g>
    </g>
   </g>
   <g id="line2d_35">
    <path d="M 173.675245 294.947567 
" clip-path="url(#p329e2539cc)" style="fill: none; stroke: #1f77b4; stroke-width: 1.5; stroke-linecap: square"/>
    <defs>
     <path id="m434211e42f" d="M 0 5 
C 1.326016 5 2.597899 4.473168 3.535534 3.535534 
C 4.473168 2.597899 5 1.326016 5 0 
C 5 -1.326016 4.473168 -2.597899 3.535534 -3.535534 
C 2.597899 -4.473168 1.326016 -5 0 -5 
C -1.326016 -5 -2.597899 -4.473168 -3.535534 -3.535534 
C -4.473168 -2.597899 -5 -1.326016 -5 0 
C -5 1.326016 -4.473168 2.597899 -3.535534 3.535534 
C -2.597899 4.473168 -1.326016 5 0 5 
z
" style="stroke: #1f77b4"/>
    </defs>
    <g clip-path="url(#p329e2539cc)">
     <use xlink:href="#m434211e42f" x="173.675245" y="294.947567" style="fill: #1f77b4; stroke: #1f77b4"/>
    </g>
   </g>
   <g id="line2d_36">
    <path d="M 235.53366 256.219144 
" clip-path="url(#p329e2539cc)" style="fill: none; stroke: #ff7f0e; stroke-width: 1.5; stroke-linecap: square"/>
    <defs>
     <path id="mbeec48c96a" d="M 0 5 
C 1.326016 5 2.597899 4.473168 3.535534 3.535534 
C 4.473168 2.597899 5 1.326016 5 0 
C 5 -1.326016 4.473168 -2.597899 3.535534 -3.535534 
C 2.597899 -4.473168 1.326016 -5 0 -5 
C -1.326016 -5 -2.597899 -4.473168 -3.535534 -3.535534 
C -4.473168 -2.597899 -5 -1.326016 -5 0 
C -5 1.326016 -4.473168 2.597899 -3.535534 3.535534 
C -2.597899 4.473168 -1.326016 5 0 5 
z
" style="stroke: #ff7f0e"/>
    </defs>
    <g clip-path="url(#p329e2539cc)">
     <use xlink:href="#mbeec48c96a" x="235.53366" y="256.219144" style="fill: #ff7f0e; stroke: #ff7f0e"/>
    </g>
   </g>
   <g id="patch_3">
    <path d="M 52.160938 416.461875 
L 52.160938 28.381875 
" style="fill: none; stroke: #000000; stroke-width: 0.8; stroke-linejoin: miter; stroke-linecap: square"/>
   </g>
   <g id="patch_4">
    <path d="M 485.002362 416.461875 
L 485.002362 28.381875 
" style="fill: none; stroke: #000000; stroke-width: 0.8; stroke-linejoin: miter; stroke-linecap: square"/>
   </g>
   <g id="patch_5">
    <path d="M 52.160938 416.461875 
L 485.002362 416.461875 
" style="fill: none; stroke: #000000; stroke-width: 0.8; stroke-linejoin: miter; stroke-linecap: square"/>
   </g>
   <g id="patch_6">
    <path d="M 52.160938 28.381875 
L 485.002362 28.381875 
" style="fill: none; stroke: #000000; stroke-width: 0.8; stroke-linejoin: miter; stroke-linecap: square"/>
   </g>
   <g id="text_20">
    <!--   poziție curentă -->
    <g transform="translate(173.675245 292.544442) scale(0.1 -0.1)">
     <defs>
      <path id="DejaVuSans-70" d="M 1159 525 
L 1159 -1331 
L 581 -1331 
L 581 3500 
L 1159 3500 
L 1159 2969 
Q 1341 3281 1617 3432 
Q 1894 3584 2278 3584 
Q 2916 3584 3314 3078 
Q 3713 2572 3713 1747 
Q 3713 922 3314 415 
Q 2916 -91 2278 -91 
Q 1894 -91 1617 61 
Q 1341 213 1159 525 
z
M 3116 1747 
Q 3116 2381 2855 2742 
Q 2594 3103 2138 3103 
Q 1681 3103 1420 2742 
Q 1159 2381 1159 1747 
Q 1159 1113 1420 752 
Q 1681 391 2138 391 
Q 2594 391 2855 752 
Q 3116 1113 3116 1747 
z
" transform="scale(0.015625)"/>
      <path id="DejaVuSans-6f" d="M 1959 3097 
Q 1497 3097 1228 2736 
Q 959 2375 959 1747 
Q 959 1119 1226 758 
Q 1494 397 1959 397 
Q 2419 397 2687 759 
Q 2956 1122 2956 1747 
Q 2956 2369 2687 2733 
Q 2419 3097 1959 3097 
z
M 1959 3584 
Q 2709 3584 3137 3096 
Q 3566 2609 3566 1747 
Q 3566 888 3137 398 
Q 2709 -91 1959 -91 
Q 1206 -91 779 398 
Q 353 888 353 1747 
Q 353 2609 779 3096 
Q 1206 3584 1959 3584 
z
" transform="scale(0.015625)"/>
      <path id="DejaVuSans-7a" d="M 353 3500 
L 3084 3500 
L 3084 2975 
L 922 459 
L 3084 459 
L 3084 0 
L 275 0 
L 275 525 
L 2438 3041 
L 353 3041 
L 353 3500 
z
" transform="scale(0.015625)"/>
      <path id="DejaVuSans-21b" d="M 1388 -538 
L 2047 -538 
L 1534 -1538 
L 1131 -1538 
L 1388 -538 
z
M 1172 4494 
L 1172 3500 
L 2356 3500 
L 2356 3053 
L 1172 3053 
L 1172 1153 
Q 1172 725 1289 603 
Q 1406 481 1766 481 
L 2356 481 
L 2356 0 
L 1766 0 
Q 1100 0 847 248 
Q 594 497 594 1153 
L 594 3053 
L 172 3053 
L 172 3500 
L 594 3500 
L 594 4494 
L 1172 4494 
z
" transform="scale(0.015625)"/>
      <path id="DejaVuSans-63" d="M 3122 3366 
L 3122 2828 
Q 2878 2963 2633 3030 
Q 2388 3097 2138 3097 
Q 1578 3097 1268 2742 
Q 959 2388 959 1747 
Q 959 1106 1268 751 
Q 1578 397 2138 397 
Q 2388 397 2633 464 
Q 2878 531 3122 666 
L 3122 134 
Q 2881 22 2623 -34 
Q 2366 -91 2075 -91 
Q 1284 -91 818 406 
Q 353 903 353 1747 
Q 353 2603 823 3093 
Q 1294 3584 2113 3584 
Q 2378 3584 2631 3529 
Q 2884 3475 3122 3366 
z
" transform="scale(0.015625)"/>
      <path id="DejaVuSans-75" d="M 544 1381 
L 544 3500 
L 1119 3500 
L 1119 1403 
Q 1119 906 1312 657 
Q 1506 409 1894 409 
Q 2359 409 2629 706 
Q 2900 1003 2900 1516 
L 2900 3500 
L 3475 3500 
L 3475 0 
L 2900 0 
L 2900 538 
Q 2691 219 2414 64 
Q 2138 -91 1772 -91 
Q 1169 -91 856 284 
Q 544 659 544 1381 
z
M 1991 3584 
L 1991 3584 
z
" transform="scale(0.015625)"/>
      <path id="DejaVuSans-72" d="M 2631 2963 
Q 2534 3019 2420 3045 
Q 2306 3072 2169 3072 
Q 1681 3072 1420 2755 
Q 1159 2438 1159 1844 
L 1159 0 
L 581 0 
L 581 3500 
L 1159 3500 
L 1159 2956 
Q 1341 3275 1631 3429 
Q 1922 3584 2338 3584 
Q 2397 3584 2469 3576 
Q 2541 3569 2628 3553 
L 2631 2963 
z
" transform="scale(0.015625)"/>
      <path id="DejaVuSans-6e" d="M 3513 2113 
L 3513 0 
L 2938 0 
L 2938 2094 
Q 2938 2591 2744 2837 
Q 2550 3084 2163 3084 
Q 1697 3084 1428 2787 
Q 1159 2491 1159 1978 
L 1159 0 
L 581 0 
L 581 3500 
L 1159 3500 
L 1159 2956 
Q 1366 3272 1645 3428 
Q 1925 3584 2291 3584 
Q 2894 3584 3203 3211 
Q 3513 2838 3513 2113 
z
" transform="scale(0.015625)"/>
      <path id="DejaVuSans-74" d="M 1172 4494 
L 1172 3500 
L 2356 3500 
L 2356 3053 
L 1172 3053 
L 1172 1153 
Q 1172 725 1289 603 
Q 1406 481 1766 481 
L 2356 481 
L 2356 0 
L 1766 0 
Q 1100 0 847 248 
Q 594 497 594 1153 
L 594 3053 
L 172 3053 
L 172 3500 
L 594 3500 
L 594 4494 
L 1172 4494 
z
" transform="scale(0.015625)"/>
      <path id="DejaVuSans-103" d="M 870 4897 
L 1239 4897 
Q 1273 4663 1424 4545 
Q 1576 4428 1848 4428 
Q 2117 4428 2267 4544 
Q 2417 4660 2457 4897 
L 2826 4897 
Q 2795 4450 2548 4225 
Q 2301 4000 1848 4000 
Q 1395 4000 1148 4225 
Q 901 4450 870 4897 
z
M 2194 1759 
Q 1497 1759 1228 1600 
Q 959 1441 959 1056 
Q 959 750 1161 570 
Q 1363 391 1709 391 
Q 2188 391 2477 730 
Q 2766 1069 2766 1631 
L 2766 1759 
L 2194 1759 
z
M 3341 1997 
L 3341 0 
L 2766 0 
L 2766 531 
Q 2569 213 2275 61 
Q 1981 -91 1556 -91 
Q 1019 -91 701 211 
Q 384 513 384 1019 
Q 384 1609 779 1909 
Q 1175 2209 1959 2209 
L 2766 2209 
L 2766 2266 
Q 2766 2663 2505 2880 
Q 2244 3097 1772 3097 
Q 1472 3097 1187 3025 
Q 903 2953 641 2809 
L 641 3341 
Q 956 3463 1253 3523 
Q 1550 3584 1831 3584 
Q 2591 3584 2966 3190 
Q 3341 2797 3341 1997 
z
" transform="scale(0.015625)"/>
     </defs>
     <use xlink:href="#DejaVuSans-20"/>
     <use xlink:href="#DejaVuSans-20" transform="translate(31.787109 0)"/>
     <use xlink:href="#DejaVuSans-70" transform="translate(63.574219 0)"/>
     <use xlink:href="#DejaVuSans-6f" transform="translate(127.050781 0)"/>
     <use xlink:href="#DejaVuSans-7a" transform="translate(188.232422 0)"/>
     <use xlink:href="#DejaVuSans-69" transform="translate(240.722656 0)"/>
     <use xlink:href="#DejaVuSans-21b" transform="translate(268.505859 0)"/>
     <use xlink:href="#DejaVuSans-69" transform="translate(307.714844 0)"/>
     <use xlink:href="#DejaVuSans-65" transform="translate(335.498047 0)"/>
     <use xlink:href="#DejaVuSans-20" transform="translate(397.021484 0)"/>
     <use xlink:href="#DejaVuSans-63" transform="translate(428.808594 0)"/>
     <use xlink:href="#DejaVuSans-75" transform="translate(483.789062 0)"/>
     <use xlink:href="#DejaVuSans-72" transform="translate(547.167969 0)"/>
     <use xlink:href="#DejaVuSans-65" transform="translate(586.03125 0)"/>
     <use xlink:href="#DejaVuSans-6e" transform="translate(647.554688 0)"/>
     <use xlink:href="#DejaVuSans-74" transform="translate(710.933594 0)"/>
     <use xlink:href="#DejaVuSans-103" transform="translate(750.142578 0)"/>
    </g>
   </g>
   <g id="text_21">
    <!--   poziție prezisă (stop) -->
    <g transform="translate(235.53366 253.816019) scale(0.1 -0.1)">
     <defs>
      <path id="DejaVuSans-73" d="M 2834 3397 
L 2834 2853 
Q 2591 2978 2328 3040 
Q 2066 3103 1784 3103 
Q 1356 3103 1142 2972 
Q 928 2841 928 2578 
Q 928 2378 1081 2264 
Q 1234 2150 1697 2047 
L 1894 2003 
Q 2506 1872 2764 1633 
Q 3022 1394 3022 966 
Q 3022 478 2636 193 
Q 2250 -91 1575 -91 
Q 1294 -91 989 -36 
Q 684 19 347 128 
L 347 722 
Q 666 556 975 473 
Q 1284 391 1588 391 
Q 1994 391 2212 530 
Q 2431 669 2431 922 
Q 2431 1156 2273 1281 
Q 2116 1406 1581 1522 
L 1381 1569 
Q 847 1681 609 1914 
Q 372 2147 372 2553 
Q 372 3047 722 3315 
Q 1072 3584 1716 3584 
Q 2034 3584 2315 3537 
Q 2597 3491 2834 3397 
z
" transform="scale(0.015625)"/>
     </defs>
     <use xlink:href="#DejaVuSans-20"/>
     <use xlink:href="#DejaVuSans-20" transform="translate(31.787109 0)"/>
     <use xlink:href="#DejaVuSans-70" transform="translate(63.574219 0)"/>
     <use xlink:href="#DejaVuSans-6f" transform="translate(127.050781 0)"/>
     <use xlink:href="#DejaVuSans-7a" transform="translate(188.232422 0)"/>
     <use xlink:href="#DejaVuSans-69" transform="translate(240.722656 0)"/>
     <use xlink:href="#DejaVuSans-21b" transform="translate(268.505859 0)"/>
     <use xlink:href="#DejaVuSans-69" transform="translate(307.714844 0)"/>
     <use xlink:href="#DejaVuSans-65" transform="translate(335.498047 0)"/>
     <use xlink:href="#DejaVuSans-20" transform="translate(397.021484 0)"/>
     <use xlink:href="#DejaVuSans-70" transform="translate(428.808594 0)"/>
     <use xlink:href="#DejaVuSans-72" transform="translate(492.285156 0)"/>
     <use xlink:href="#DejaVuSans-65" transform="translate(531.148438 0)"/>
     <use xlink:href="#DejaVuSans-7a" transform="translate(592.671875 0)"/>
     <use xlink:href="#DejaVuSans-69" transform="translate(645.162109 0)"/>
     <use xlink:href="#DejaVuSans-73" transform="translate(672.945312 0)"/>
     <use xlink:href="#DejaVuSans-103" transform="translate(725.044922 0)"/>
     <use xlink:href="#DejaVuSans-20" transform="translate(786.324219 0)"/>
     <use xlink:href="#DejaVuSans-28" transform="translate(818.111328 0)"/>
     <use xlink:href="#DejaVuSans-73" transform="translate(857.125 0)"/>
     <use xlink:href="#DejaVuSans-74" transform="translate(909.224609 0)"/>
     <use xlink:href="#DejaVuSans-6f" transform="translate(948.433594 0)"/>
     <use xlink:href="#DejaVuSans-70" transform="translate(1009.615234 0)"/>
     <use xlink:href="#DejaVuSans-29" transform="translate(1073.091797 0)"/>
    </g>
   </g>
   <g id="patch_7">
    <path d="M 175.602646 294.421913 
Q 229.369276 279.758286 279.89999 265.977182 
" style="fill: none; stroke: #000000; stroke-width: 3; stroke-linecap: round"/>
    <path d="M 275.5147 265.100124 
L 279.89999 265.977182 
L 276.567169 268.95918 
" style="fill: none; stroke: #000000; stroke-width: 3; stroke-linecap: round"/>
   </g>
   <g id="text_22">
    <!--   v(field) -->
    <g transform="translate(234.938709 276.159662) scale(0.1 -0.1)">
     <defs>
      <path id="DejaVuSans-76" d="M 191 3500 
L 800 3500 
L 1894 563 
L 2988 3500 
L 3597 3500 
L 2284 0 
L 1503 0 
L 191 3500 
z
" transform="scale(0.015625)"/>
     </defs>
     <use xlink:href="#DejaVuSans-20"/>
     <use xlink:href="#DejaVuSans-20" transform="translate(31.787109 0)"/>
     <use xlink:href="#DejaVuSans-76" transform="translate(63.574219 0)"/>
     <use xlink:href="#DejaVuSans-28" transform="translate(122.753906 0)"/>
     <use xlink:href="#DejaVuSans-66" transform="translate(161.767578 0)"/>
     <use xlink:href="#DejaVuSans-69" transform="translate(196.972656 0)"/>
     <use xlink:href="#DejaVuSans-65" transform="translate(224.755859 0)"/>
     <use xlink:href="#DejaVuSans-6c" transform="translate(286.279297 0)"/>
     <use xlink:href="#DejaVuSans-64" transform="translate(314.0625 0)"/>
     <use xlink:href="#DejaVuSans-29" transform="translate(377.539062 0)"/>
    </g>
   </g>
   <g id="patch_8">
    <path d="M 175.370462 293.886223 
Q 204.605649 275.582607 230.050316 259.652165 
" style="fill: none; stroke-dasharray: 14.8,6.4; stroke-dashoffset: 0; stroke: #000000; stroke-width: 4; stroke-linecap: round"/>
    <path d="M 225.598656 260.079626 
L 230.050316 259.652165 
L 227.721288 263.46997 
" style="fill: none; stroke-dasharray: 14.8,6.4; stroke-dashoffset: 0; stroke: #000000; stroke-width: 4; stroke-linecap: round"/>
   </g>
   <g id="text_23">
    <!--   glide (x_g, y_g) -->
    <g transform="translate(204.604453 273.225543) scale(0.1 -0.1)">
     <defs>
      <path id="DejaVuSans-67" d="M 2906 1791 
Q 2906 2416 2648 2759 
Q 2391 3103 1925 3103 
Q 1463 3103 1205 2759 
Q 947 2416 947 1791 
Q 947 1169 1205 825 
Q 1463 481 1925 481 
Q 2391 481 2648 825 
Q 2906 1169 2906 1791 
z
M 3481 434 
Q 3481 -459 3084 -895 
Q 2688 -1331 1869 -1331 
Q 1566 -1331 1297 -1286 
Q 1028 -1241 775 -1147 
L 775 -588 
Q 1028 -725 1275 -790 
Q 1522 -856 1778 -856 
Q 2344 -856 2625 -561 
Q 2906 -266 2906 331 
L 2906 616 
Q 2728 306 2450 153 
Q 2172 0 1784 0 
Q 1141 0 747 490 
Q 353 981 353 1791 
Q 353 2603 747 3093 
Q 1141 3584 1784 3584 
Q 2172 3584 2450 3431 
Q 2728 3278 2906 2969 
L 2906 3500 
L 3481 3500 
L 3481 434 
z
" transform="scale(0.015625)"/>
      <path id="DejaVuSans-78" d="M 3513 3500 
L 2247 1797 
L 3578 0 
L 2900 0 
L 1881 1375 
L 863 0 
L 184 0 
L 1544 1831 
L 300 3500 
L 978 3500 
L 1906 2253 
L 2834 3500 
L 3513 3500 
z
" transform="scale(0.015625)"/>
      <path id="DejaVuSans-5f" d="M 3263 -1063 
L 3263 -1509 
L -63 -1509 
L -63 -1063 
L 3263 -1063 
z
" transform="scale(0.015625)"/>
      <path id="DejaVuSans-2c" d="M 750 794 
L 1409 794 
L 1409 256 
L 897 -744 
L 494 -744 
L 750 256 
L 750 794 
z
" transform="scale(0.015625)"/>
      <path id="DejaVuSans-79" d="M 2059 -325 
Q 1816 -950 1584 -1140 
Q 1353 -1331 966 -1331 
L 506 -1331 
L 506 -850 
L 844 -850 
Q 1081 -850 1212 -737 
Q 1344 -625 1503 -206 
L 1606 56 
L 191 3500 
L 800 3500 
L 1894 763 
L 2988 3500 
L 3597 3500 
L 2059 -325 
z
" transform="scale(0.015625)"/>
     </defs>
     <use xlink:href="#DejaVuSans-20"/>
     <use xlink:href="#DejaVuSans-20" transform="translate(31.787109 0)"/>
     <use xlink:href="#DejaVuSans-67" transform="translate(63.574219 0)"/>
     <use xlink:href="#DejaVuSans-6c" transform="translate(127.050781 0)"/>
     <use xlink:href="#DejaVuSans-69" transform="translate(154.833984 0)"/>
     <use xlink:href="#DejaVuSans-64" transform="translate(182.617188 0)"/>
     <use xlink:href="#DejaVuSans-65" transform="translate(246.09375 0)"/>
     <use xlink:href="#DejaVuSans-20" transform="translate(307.617188 0)"/>
     <use xlink:href="#DejaVuSans-28" transform="translate(339.404297 0)"/>
     <use xlink:href="#DejaVuSans-78" transform="translate(378.417969 0)"/>
     <use xlink:href="#DejaVuSans-5f" transform="translate(437.597656 0)"/>
     <use xlink:href="#DejaVuSans-67" transform="translate(487.597656 0)"/>
     <use xlink:href="#DejaVuSans-2c" transform="translate(551.074219 0)"/>
     <use xlink:href="#DejaVuSans-20" transform="translate(582.861328 0)"/>
     <use xlink:href="#DejaVuSans-79" transform="translate(614.648438 0)"/>
     <use xlink:href="#DejaVuSans-5f" transform="translate(673.828125 0)"/>
     <use xlink:href="#DejaVuSans-67" transform="translate(723.828125 0)"/>
     <use xlink:href="#DejaVuSans-29" transform="translate(787.304688 0)"/>
    </g>
   </g>
   <g id="patch_9">
    <path d="M 175.313314 293.800579 
Q 248.329238 242.674279 319.055562 193.151173 
" style="fill: none; stroke: #000000; stroke-width: 2.5; stroke-linecap: round"/>
    <path d="M 314.631801 193.807175 
L 319.055562 193.151173 
L 316.926107 197.083783 
" style="fill: none; stroke: #000000; stroke-width: 2.5; stroke-linecap: round"/>
   </g>
   <g id="text_24">
    <!--   heading θ -->
    <g transform="translate(322.983286 188.321264) scale(0.1 -0.1)">
     <defs>
      <path id="DejaVuSans-68" d="M 3513 2113 
L 3513 0 
L 2938 0 
L 2938 2094 
Q 2938 2591 2744 2837 
Q 2550 3084 2163 3084 
Q 1697 3084 1428 2787 
Q 1159 2491 1159 1978 
L 1159 0 
L 581 0 
L 581 4863 
L 1159 4863 
L 1159 2956 
Q 1366 3272 1645 3428 
Q 1925 3584 2291 3584 
Q 2894 3584 3203 3211 
Q 3513 2838 3513 2113 
z
" transform="scale(0.015625)"/>
      <path id="DejaVuSans-61" d="M 2194 1759 
Q 1497 1759 1228 1600 
Q 959 1441 959 1056 
Q 959 750 1161 570 
Q 1363 391 1709 391 
Q 2188 391 2477 730 
Q 2766 1069 2766 1631 
L 2766 1759 
L 2194 1759 
z
M 3341 1997 
L 3341 0 
L 2766 0 
L 2766 531 
Q 2569 213 2275 61 
Q 1981 -91 1556 -91 
Q 1019 -91 701 211 
Q 384 513 384 1019 
Q 384 1609 779 1909 
Q 1175 2209 1959 2209 
L 2766 2209 
L 2766 2266 
Q 2766 2663 2505 2880 
Q 2244 3097 1772 3097 
Q 1472 3097 1187 3025 
Q 903 2953 641 2809 
L 641 3341 
Q 956 3463 1253 3523 
Q 1550 3584 1831 3584 
Q 2591 3584 2966 3190 
Q 3341 2797 3341 1997 
z
" transform="scale(0.015625)"/>
      <path id="DejaVuSans-3b8" d="M 2953 2219 
L 963 2219 
Q 1009 1284 1225 888 
Q 1494 400 1959 400 
Q 2428 400 2688 891 
Q 2916 1322 2953 2219 
z
M 2944 2750 
Q 2856 3638 2688 3950 
Q 2419 4444 1959 4444 
Q 1481 4444 1228 3956 
Q 1028 3563 969 2750 
L 2944 2750 
z
M 1959 4913 
Q 2709 4913 3138 4250 
Q 3566 3591 3566 2422 
Q 3566 1256 3138 594 
Q 2709 -72 1959 -72 
Q 1206 -72 781 594 
Q 353 1256 353 2422 
Q 353 3591 781 4250 
Q 1206 4913 1959 4913 
z
" transform="scale(0.015625)"/>
     </defs>
     <use xlink:href="#DejaVuSans-20"/>
     <use xlink:href="#DejaVuSans-20" transform="translate(31.787109 0)"/>
     <use xlink:href="#DejaVuSans-68" transform="translate(63.574219 0)"/>
     <use xlink:href="#DejaVuSans-65" transform="translate(126.953125 0)"/>
     <use xlink:href="#DejaVuSans-61" transform="translate(188.476562 0)"/>
     <use xlink:href="#DejaVuSans-64" transform="translate(249.755859 0)"/>
     <use xlink:href="#DejaVuSans-69" transform="translate(313.232422 0)"/>
     <use xlink:href="#DejaVuSans-6e" transform="translate(341.015625 0)"/>
     <use xlink:href="#DejaVuSans-67" transform="translate(404.394531 0)"/>
     <use xlink:href="#DejaVuSans-20" transform="translate(467.871094 0)"/>
     <use xlink:href="#DejaVuSans-3b8" transform="translate(499.658203 0)"/>
    </g>
   </g>
   <g id="text_25">
    <g id="patch_10">
     <path d="M 60.817766 413.200275 
L 316.627141 413.200275 
Q 321.127141 413.200275 321.127141 408.700275 
L 321.127141 340.562462 
Q 321.127141 336.062462 316.627141 336.062462 
L 60.817766 336.062462 
Q 56.317766 336.062462 56.317766 340.562462 
L 56.317766 408.700275 
Q 56.317766 413.200275 60.817766 413.200275 
z
" style="fill: #1f77b4; stroke: #000000; stroke-linejoin: miter"/>
    </g>
    <!-- Pașii vizuali: -->
    <g transform="translate(60.817766 348.484337) scale(0.1 -0.1)">
     <defs>
      <path id="DejaVuSans-50" d="M 1259 4147 
L 1259 2394 
L 2053 2394 
Q 2494 2394 2734 2622 
Q 2975 2850 2975 3272 
Q 2975 3691 2734 3919 
Q 2494 4147 2053 4147 
L 1259 4147 
z
M 628 4666 
L 2053 4666 
Q 2838 4666 3239 4311 
Q 3641 3956 3641 3272 
Q 3641 2581 3239 2228 
Q 2838 1875 2053 1875 
L 1259 1875 
L 1259 0 
L 628 0 
L 628 4666 
z
" transform="scale(0.015625)"/>
      <path id="DejaVuSans-219" d="M 1524 -538 
L 2183 -538 
L 1670 -1538 
L 1267 -1538 
L 1524 -538 
z
M 2834 3397 
L 2834 2853 
Q 2591 2978 2328 3040 
Q 2066 3103 1784 3103 
Q 1356 3103 1142 2972 
Q 928 2841 928 2578 
Q 928 2378 1081 2264 
Q 1234 2150 1697 2047 
L 1894 2003 
Q 2506 1872 2764 1633 
Q 3022 1394 3022 966 
Q 3022 478 2636 193 
Q 2250 -91 1575 -91 
Q 1294 -91 989 -36 
Q 684 19 347 128 
L 347 722 
Q 666 556 975 473 
Q 1284 391 1588 391 
Q 1994 391 2212 530 
Q 2431 669 2431 922 
Q 2431 1156 2273 1281 
Q 2116 1406 1581 1522 
L 1381 1569 
Q 847 1681 609 1914 
Q 372 2147 372 2553 
Q 372 3047 722 3315 
Q 1072 3584 1716 3584 
Q 2034 3584 2315 3537 
Q 2597 3491 2834 3397 
z
" transform="scale(0.015625)"/>
      <path id="DejaVuSans-3a" d="M 750 794 
L 1409 794 
L 1409 0 
L 750 0 
L 750 794 
z
M 750 3309 
L 1409 3309 
L 1409 2516 
L 750 2516 
L 750 3309 
z
" transform="scale(0.015625)"/>
     </defs>
     <use xlink:href="#DejaVuSans-50"/>
     <use xlink:href="#DejaVuSans-61" transform="translate(55.802734 0)"/>
     <use xlink:href="#DejaVuSans-219" transform="translate(117.082031 0)"/>
     <use xlink:href="#DejaVuSans-69" transform="translate(169.181641 0)"/>
     <use xlink:href="#DejaVuSans-69" transform="translate(196.964844 0)"/>
     <use xlink:href="#DejaVuSans-20" transform="translate(224.748047 0)"/>
     <use xlink:href="#DejaVuSans-76" transform="translate(256.535156 0)"/>
     <use xlink:href="#DejaVuSans-69" transform="translate(315.714844 0)"/>
     <use xlink:href="#DejaVuSans-7a" transform="translate(343.498047 0)"/>
     <use xlink:href="#DejaVuSans-75" transform="translate(395.988281 0)"/>
     <use xlink:href="#DejaVuSans-61" transform="translate(459.367188 0)"/>
     <use xlink:href="#DejaVuSans-6c" transform="translate(520.646484 0)"/>
     <use xlink:href="#DejaVuSans-69" transform="translate(548.429688 0)"/>
     <use xlink:href="#DejaVuSans-3a" transform="translate(576.212891 0)"/>
    </g>
    <!-- 1) calculezi vF, vS (pe axele robotului) -->
    <g transform="translate(60.817766 360.005587) scale(0.1 -0.1)">
     <defs>
      <path id="DejaVuSans-46" d="M 628 4666 
L 3309 4666 
L 3309 4134 
L 1259 4134 
L 1259 2759 
L 3109 2759 
L 3109 2228 
L 1259 2228 
L 1259 0 
L 628 0 
L 628 4666 
z
" transform="scale(0.015625)"/>
      <path id="DejaVuSans-53" d="M 3425 4513 
L 3425 3897 
Q 3066 4069 2747 4153 
Q 2428 4238 2131 4238 
Q 1616 4238 1336 4038 
Q 1056 3838 1056 3469 
Q 1056 3159 1242 3001 
Q 1428 2844 1947 2747 
L 2328 2669 
Q 3034 2534 3370 2195 
Q 3706 1856 3706 1288 
Q 3706 609 3251 259 
Q 2797 -91 1919 -91 
Q 1588 -91 1214 -16 
Q 841 59 441 206 
L 441 856 
Q 825 641 1194 531 
Q 1563 422 1919 422 
Q 2459 422 2753 634 
Q 3047 847 3047 1241 
Q 3047 1584 2836 1778 
Q 2625 1972 2144 2069 
L 1759 2144 
Q 1053 2284 737 2584 
Q 422 2884 422 3419 
Q 422 4038 858 4394 
Q 1294 4750 2059 4750 
Q 2388 4750 2728 4690 
Q 3069 4631 3425 4513 
z
" transform="scale(0.015625)"/>
      <path id="DejaVuSans-62" d="M 3116 1747 
Q 3116 2381 2855 2742 
Q 2594 3103 2138 3103 
Q 1681 3103 1420 2742 
Q 1159 2381 1159 1747 
Q 1159 1113 1420 752 
Q 1681 391 2138 391 
Q 2594 391 2855 752 
Q 3116 1113 3116 1747 
z
M 1159 2969 
Q 1341 3281 1617 3432 
Q 1894 3584 2278 3584 
Q 2916 3584 3314 3078 
Q 3713 2572 3713 1747 
Q 3713 922 3314 415 
Q 2916 -91 2278 -91 
Q 1894 -91 1617 61 
Q 1341 213 1159 525 
L 1159 0 
L 581 0 
L 581 4863 
L 1159 4863 
L 1159 2969 
z
" transform="scale(0.015625)"/>
     </defs>
     <use xlink:href="#DejaVuSans-31"/>
     <use xlink:href="#DejaVuSans-29" transform="translate(63.623047 0)"/>
     <use xlink:href="#DejaVuSans-20" transform="translate(102.636719 0)"/>
     <use xlink:href="#DejaVuSans-63" transform="translate(134.423828 0)"/>
     <use xlink:href="#DejaVuSans-61" transform="translate(189.404297 0)"/>
     <use xlink:href="#DejaVuSans-6c" transform="translate(250.683594 0)"/>
     <use xlink:href="#DejaVuSans-63" transform="translate(278.466797 0)"/>
     <use xlink:href="#DejaVuSans-75" transform="translate(333.447266 0)"/>
     <use xlink:href="#DejaVuSans-6c" transform="translate(396.826172 0)"/>
     <use xlink:href="#DejaVuSans-65" transform="translate(424.609375 0)"/>
     <use xlink:href="#DejaVuSans-7a" transform="translate(486.132812 0)"/>
     <use xlink:href="#DejaVuSans-69" transform="translate(538.623047 0)"/>
     <use xlink:href="#DejaVuSans-20" transform="translate(566.40625 0)"/>
     <use xlink:href="#DejaVuSans-76" transform="translate(598.193359 0)"/>
     <use xlink:href="#DejaVuSans-46" transform="translate(657.373047 0)"/>
     <use xlink:href="#DejaVuSans-2c" transform="translate(714.892578 0)"/>
     <use xlink:href="#DejaVuSans-20" transform="translate(746.679688 0)"/>
     <use xlink:href="#DejaVuSans-76" transform="translate(778.466797 0)"/>
     <use xlink:href="#DejaVuSans-53" transform="translate(837.646484 0)"/>
     <use xlink:href="#DejaVuSans-20" transform="translate(901.123047 0)"/>
     <use xlink:href="#DejaVuSans-28" transform="translate(932.910156 0)"/>
     <use xlink:href="#DejaVuSans-70" transform="translate(971.923828 0)"/>
     <use xlink:href="#DejaVuSans-65" transform="translate(1035.400391 0)"/>
     <use xlink:href="#DejaVuSans-20" transform="translate(1096.923828 0)"/>
     <use xlink:href="#DejaVuSans-61" transform="translate(1128.710938 0)"/>
     <use xlink:href="#DejaVuSans-78" transform="translate(1189.990234 0)"/>
     <use xlink:href="#DejaVuSans-65" transform="translate(1246.044922 0)"/>
     <use xlink:href="#DejaVuSans-6c" transform="translate(1307.568359 0)"/>
     <use xlink:href="#DejaVuSans-65" transform="translate(1335.351562 0)"/>
     <use xlink:href="#DejaVuSans-20" transform="translate(1396.875 0)"/>
     <use xlink:href="#DejaVuSans-72" transform="translate(1428.662109 0)"/>
     <use xlink:href="#DejaVuSans-6f" transform="translate(1467.525391 0)"/>
     <use xlink:href="#DejaVuSans-62" transform="translate(1528.707031 0)"/>
     <use xlink:href="#DejaVuSans-6f" transform="translate(1592.183594 0)"/>
     <use xlink:href="#DejaVuSans-74" transform="translate(1653.365234 0)"/>
     <use xlink:href="#DejaVuSans-75" transform="translate(1692.574219 0)"/>
     <use xlink:href="#DejaVuSans-6c" transform="translate(1755.953125 0)"/>
     <use xlink:href="#DejaVuSans-75" transform="translate(1783.736328 0)"/>
     <use xlink:href="#DejaVuSans-69" transform="translate(1847.115234 0)"/>
     <use xlink:href="#DejaVuSans-29" transform="translate(1874.898438 0)"/>
    </g>
    <!-- 2) calculezi gF, gS cu v^2/(2a) -->
    <g transform="translate(60.817766 371.2034) scale(0.1 -0.1)">
     <defs>
      <path id="DejaVuSans-5e" d="M 2988 4666 
L 4684 2925 
L 4056 2925 
L 2681 4159 
L 1306 2925 
L 678 2925 
L 2375 4666 
L 2988 4666 
z
" transform="scale(0.015625)"/>
      <path id="DejaVuSans-2f" d="M 1625 4666 
L 2156 4666 
L 531 -594 
L 0 -594 
L 1625 4666 
z
" transform="scale(0.015625)"/>
     </defs>
     <use xlink:href="#DejaVuSans-32"/>
     <use xlink:href="#DejaVuSans-29" transform="translate(63.623047 0)"/>
     <use xlink:href="#DejaVuSans-20" transform="translate(102.636719 0)"/>
     <use xlink:href="#DejaVuSans-63" transform="translate(134.423828 0)"/>
     <use xlink:href="#DejaVuSans-61" transform="translate(189.404297 0)"/>
     <use xlink:href="#DejaVuSans-6c" transform="translate(250.683594 0)"/>
     <use xlink:href="#DejaVuSans-63" transform="translate(278.466797 0)"/>
     <use xlink:href="#DejaVuSans-75" transform="translate(333.447266 0)"/>
     <use xlink:href="#DejaVuSans-6c" transform="translate(396.826172 0)"/>
     <use xlink:href="#DejaVuSans-65" transform="translate(424.609375 0)"/>
     <use xlink:href="#DejaVuSans-7a" transform="translate(486.132812 0)"/>
     <use xlink:href="#DejaVuSans-69" transform="translate(538.623047 0)"/>
     <use xlink:href="#DejaVuSans-20" transform="translate(566.40625 0)"/>
     <use xlink:href="#DejaVuSans-67" transform="translate(598.193359 0)"/>
     <use xlink:href="#DejaVuSans-46" transform="translate(661.669922 0)"/>
     <use xlink:href="#DejaVuSans-2c" transform="translate(719.189453 0)"/>
     <use xlink:href="#DejaVuSans-20" transform="translate(750.976562 0)"/>
     <use xlink:href="#DejaVuSans-67" transform="translate(782.763672 0)"/>
     <use xlink:href="#DejaVuSans-53" transform="translate(846.240234 0)"/>
     <use xlink:href="#DejaVuSans-20" transform="translate(909.716797 0)"/>
     <use xlink:href="#DejaVuSans-63" transform="translate(941.503906 0)"/>
     <use xlink:href="#DejaVuSans-75" transform="translate(996.484375 0)"/>
     <use xlink:href="#DejaVuSans-20" transform="translate(1059.863281 0)"/>
     <use xlink:href="#DejaVuSans-76" transform="translate(1091.650391 0)"/>
     <use xlink:href="#DejaVuSans-5e" transform="translate(1150.830078 0)"/>
     <use xlink:href="#DejaVuSans-32" transform="translate(1234.619141 0)"/>
     <use xlink:href="#DejaVuSans-2f" transform="translate(1298.242188 0)"/>
     <use xlink:href="#DejaVuSans-28" transform="translate(1331.933594 0)"/>
     <use xlink:href="#DejaVuSans-32" transform="translate(1370.947266 0)"/>
     <use xlink:href="#DejaVuSans-61" transform="translate(1434.570312 0)"/>
     <use xlink:href="#DejaVuSans-29" transform="translate(1495.849609 0)"/>
    </g>
    <!-- 3) rotești (gF,gS) înapoi în field → (x_g,y_g) -->
    <g transform="translate(60.817766 382.881212) scale(0.1 -0.1)">
     <defs>
      <path id="DejaVuSans-ee" d="M 603 3500 
L 1178 3500 
L 1178 0 
L 603 0 
L 603 3500 
z
M 891 3584 
L 891 3584 
z
M 657 5119 
L 1119 5119 
L 1885 3944 
L 1451 3944 
L 888 4709 
L 326 3944 
L -109 3944 
L 657 5119 
z
" transform="scale(0.015625)"/>
      <path id="DejaVuSans-2192" d="M 5050 2147 
L 5050 1866 
L 3822 638 
L 3447 1013 
L 4175 1741 
L 366 1741 
L 366 2272 
L 4175 2272 
L 3447 3000 
L 3822 3375 
L 5050 2147 
z
" transform="scale(0.015625)"/>
     </defs>
     <use xlink:href="#DejaVuSans-33"/>
     <use xlink:href="#DejaVuSans-29" transform="translate(63.623047 0)"/>
     <use xlink:href="#DejaVuSans-20" transform="translate(102.636719 0)"/>
     <use xlink:href="#DejaVuSans-72" transform="translate(134.423828 0)"/>
     <use xlink:href="#DejaVuSans-6f" transform="translate(173.287109 0)"/>
     <use xlink:href="#DejaVuSans-74" transform="translate(234.46875 0)"/>
     <use xlink:href="#DejaVuSans-65" transform="translate(273.677734 0)"/>
     <use xlink:href="#DejaVuSans-219" transform="translate(335.201172 0)"/>
     <use xlink:href="#DejaVuSans-74" transform="translate(387.300781 0)"/>
     <use xlink:href="#DejaVuSans-69" transform="translate(426.509766 0)"/>
     <use xlink:href="#DejaVuSans-20" transform="translate(454.292969 0)"/>
     <use xlink:href="#DejaVuSans-28" transform="translate(486.080078 0)"/>
     <use xlink:href="#DejaVuSans-67" transform="translate(525.09375 0)"/>
     <use xlink:href="#DejaVuSans-46" transform="translate(588.570312 0)"/>
     <use xlink:href="#DejaVuSans-2c" transform="translate(646.089844 0)"/>
     <use xlink:href="#DejaVuSans-67" transform="translate(677.876953 0)"/>
     <use xlink:href="#DejaVuSans-53" transform="translate(741.353516 0)"/>
     <use xlink:href="#DejaVuSans-29" transform="translate(804.830078 0)"/>
     <use xlink:href="#DejaVuSans-20" transform="translate(843.84375 0)"/>
     <use xlink:href="#DejaVuSans-ee" transform="translate(875.630859 0)"/>
     <use xlink:href="#DejaVuSans-6e" transform="translate(903.414062 0)"/>
     <use xlink:href="#DejaVuSans-61" transform="translate(966.792969 0)"/>
     <use xlink:href="#DejaVuSans-70" transform="translate(1028.072266 0)"/>
     <use xlink:href="#DejaVuSans-6f" transform="translate(1091.548828 0)"/>
     <use xlink:href="#DejaVuSans-69" transform="translate(1152.730469 0)"/>
     <use xlink:href="#DejaVuSans-20" transform="translate(1180.513672 0)"/>
     <use xlink:href="#DejaVuSans-ee" transform="translate(1212.300781 0)"/>
     <use xlink:href="#DejaVuSans-6e" transform="translate(1240.083984 0)"/>
     <use xlink:href="#DejaVuSans-20" transform="translate(1303.462891 0)"/>
     <use xlink:href="#DejaVuSans-66" transform="translate(1335.25 0)"/>
     <use xlink:href="#DejaVuSans-69" transform="translate(1370.455078 0)"/>
     <use xlink:href="#DejaVuSans-65" transform="translate(1398.238281 0)"/>
     <use xlink:href="#DejaVuSans-6c" transform="translate(1459.761719 0)"/>
     <use xlink:href="#DejaVuSans-64" transform="translate(1487.544922 0)"/>
     <use xlink:href="#DejaVuSans-20" transform="translate(1551.021484 0)"/>
     <use xlink:href="#DejaVuSans-2192" transform="translate(1582.808594 0)"/>
     <use xlink:href="#DejaVuSans-20" transform="translate(1666.597656 0)"/>
     <use xlink:href="#DejaVuSans-28" transform="translate(1698.384766 0)"/>
     <use xlink:href="#DejaVuSans-78" transform="translate(1737.398438 0)"/>
     <use xlink:href="#DejaVuSans-5f" transform="translate(1796.578125 0)"/>
     <use xlink:href="#DejaVuSans-67" transform="translate(1846.578125 0)"/>
     <use xlink:href="#DejaVuSans-2c" transform="translate(1910.054688 0)"/>
     <use xlink:href="#DejaVuSans-79" transform="translate(1941.841797 0)"/>
     <use xlink:href="#DejaVuSans-5f" transform="translate(2001.021484 0)"/>
     <use xlink:href="#DejaVuSans-67" transform="translate(2051.021484 0)"/>
     <use xlink:href="#DejaVuSans-29" transform="translate(2114.498047 0)"/>
    </g>
    <!-- $x_{pred}=x+x_g,\ \ y_{pred}=y+y_g$ -->
    <g transform="translate(60.817766 394.402462) scale(0.1 -0.1)">
     <defs>
      <path id="DejaVuSans-Oblique-78" d="M 3841 3500 
L 2234 1784 
L 3219 0 
L 2559 0 
L 1819 1388 
L 531 0 
L -166 0 
L 1556 1844 
L 641 3500 
L 1300 3500 
L 1972 2234 
L 3144 3500 
L 3841 3500 
z
" transform="scale(0.015625)"/>
      <path id="DejaVuSans-Oblique-70" d="M 3175 2156 
Q 3175 2616 2975 2859 
Q 2775 3103 2400 3103 
Q 2144 3103 1911 2972 
Q 1678 2841 1497 2591 
Q 1319 2344 1212 1994 
Q 1106 1644 1106 1300 
Q 1106 863 1306 627 
Q 1506 391 1875 391 
Q 2147 391 2380 519 
Q 2613 647 2778 891 
Q 2956 1147 3065 1494 
Q 3175 1841 3175 2156 
z
M 1394 2969 
Q 1625 3272 1939 3428 
Q 2253 3584 2638 3584 
Q 3175 3584 3472 3232 
Q 3769 2881 3769 2247 
Q 3769 1728 3584 1258 
Q 3400 788 3053 416 
Q 2822 169 2531 39 
Q 2241 -91 1919 -91 
Q 1547 -91 1294 64 
Q 1041 219 916 525 
L 556 -1331 
L -19 -1331 
L 922 3500 
L 1497 3500 
L 1394 2969 
z
" transform="scale(0.015625)"/>
      <path id="DejaVuSans-Oblique-72" d="M 2853 2969 
Q 2766 3016 2653 3041 
Q 2541 3066 2413 3066 
Q 1953 3066 1609 2717 
Q 1266 2369 1153 1784 
L 800 0 
L 225 0 
L 909 3500 
L 1484 3500 
L 1375 2956 
Q 1603 3259 1920 3421 
Q 2238 3584 2597 3584 
Q 2691 3584 2781 3573 
Q 2872 3563 2963 3538 
L 2853 2969 
z
" transform="scale(0.015625)"/>
      <path id="DejaVuSans-Oblique-65" d="M 3078 2063 
Q 3088 2113 3092 2166 
Q 3097 2219 3097 2272 
Q 3097 2653 2873 2875 
Q 2650 3097 2266 3097 
Q 1838 3097 1509 2826 
Q 1181 2556 1013 2059 
L 3078 2063 
z
M 3578 1613 
L 903 1613 
Q 884 1494 878 1425 
Q 872 1356 872 1306 
Q 872 872 1139 634 
Q 1406 397 1894 397 
Q 2269 397 2603 481 
Q 2938 566 3225 728 
L 3116 159 
Q 2806 34 2476 -28 
Q 2147 -91 1806 -91 
Q 1078 -91 686 257 
Q 294 606 294 1247 
Q 294 1794 489 2264 
Q 684 2734 1063 3103 
Q 1306 3334 1642 3459 
Q 1978 3584 2356 3584 
Q 2950 3584 3301 3228 
Q 3653 2872 3653 2272 
Q 3653 2128 3634 1964 
Q 3616 1800 3578 1613 
z
" transform="scale(0.015625)"/>
      <path id="DejaVuSans-Oblique-64" d="M 2675 525 
Q 2444 222 2128 65 
Q 1813 -91 1428 -91 
Q 903 -91 598 267 
Q 294 625 294 1247 
Q 294 1766 478 2236 
Q 663 2706 1013 3078 
Q 1244 3325 1534 3454 
Q 1825 3584 2144 3584 
Q 2481 3584 2739 3421 
Q 2997 3259 3138 2956 
L 3513 4863 
L 4091 4863 
L 3144 0 
L 2566 0 
L 2675 525 
z
M 891 1350 
Q 891 897 1095 644 
Q 1300 391 1663 391 
Q 1931 391 2161 520 
Q 2391 650 2566 903 
Q 2750 1166 2856 1509 
Q 2963 1853 2963 2188 
Q 2963 2622 2758 2865 
Q 2553 3109 2194 3109 
Q 1922 3109 1687 2981 
Q 1453 2853 1288 2613 
Q 1106 2353 998 2009 
Q 891 1666 891 1350 
z
" transform="scale(0.015625)"/>
      <path id="DejaVuSans-3d" d="M 678 2906 
L 4684 2906 
L 4684 2381 
L 678 2381 
L 678 2906 
z
M 678 1631 
L 4684 1631 
L 4684 1100 
L 678 1100 
L 678 1631 
z
" transform="scale(0.015625)"/>
      <path id="DejaVuSans-2b" d="M 2944 4013 
L 2944 2272 
L 4684 2272 
L 4684 1741 
L 2944 1741 
L 2944 0 
L 2419 0 
L 2419 1741 
L 678 1741 
L 678 2272 
L 2419 2272 
L 2419 4013 
L 2944 4013 
z
" transform="scale(0.015625)"/>
      <path id="DejaVuSans-Oblique-67" d="M 3816 3500 
L 3219 434 
Q 3047 -456 2561 -893 
Q 2075 -1331 1253 -1331 
Q 950 -1331 690 -1286 
Q 431 -1241 206 -1147 
L 313 -588 
Q 525 -725 762 -790 
Q 1000 -856 1269 -856 
Q 1816 -856 2167 -557 
Q 2519 -259 2631 300 
L 2681 563 
Q 2441 288 2122 144 
Q 1803 0 1434 0 
Q 903 0 598 351 
Q 294 703 294 1319 
Q 294 1803 478 2267 
Q 663 2731 997 3091 
Q 1219 3328 1514 3456 
Q 1809 3584 2131 3584 
Q 2484 3584 2746 3420 
Q 3009 3256 3138 2956 
L 3238 3500 
L 3816 3500 
z
M 2950 2216 
Q 2950 2641 2750 2872 
Q 2550 3103 2181 3103 
Q 1953 3103 1747 3012 
Q 1541 2922 1394 2759 
Q 1156 2491 1023 2127 
Q 891 1763 891 1375 
Q 891 944 1092 712 
Q 1294 481 1672 481 
Q 2219 481 2584 976 
Q 2950 1472 2950 2216 
z
" transform="scale(0.015625)"/>
      <path id="DejaVuSans-Oblique-79" d="M 1588 -325 
Q 1188 -997 936 -1164 
Q 684 -1331 294 -1331 
L -159 -1331 
L -63 -850 
L 269 -850 
Q 509 -850 678 -719 
Q 847 -588 1056 -206 
L 1234 128 
L 459 3500 
L 1069 3500 
L 1650 819 
L 3256 3500 
L 3859 3500 
L 1588 -325 
z
" transform="scale(0.015625)"/>
     </defs>
     <use xlink:href="#DejaVuSans-Oblique-78" transform="translate(0 0.296875)"/>
     <use xlink:href="#DejaVuSans-Oblique-70" transform="translate(59.179688 -16.109375) scale(0.7)"/>
     <use xlink:href="#DejaVuSans-Oblique-72" transform="translate(103.613281 -16.109375) scale(0.7)"/>
     <use xlink:href="#DejaVuSans-Oblique-65" transform="translate(132.392578 -16.109375) scale(0.7)"/>
     <use xlink:href="#DejaVuSans-Oblique-64" transform="translate(175.458984 -16.109375) scale(0.7)"/>
     <use xlink:href="#DejaVuSans-3d" transform="translate(242.109375 0.296875)"/>
     <use xlink:href="#DejaVuSans-Oblique-78" transform="translate(345.380859 0.296875)"/>
     <use xlink:href="#DejaVuSans-2b" transform="translate(424.042969 0.296875)"/>
     <use xlink:href="#DejaVuSans-Oblique-78" transform="translate(527.314453 0.296875)"/>
     <use xlink:href="#DejaVuSans-Oblique-67" transform="translate(586.494141 -16.109375) scale(0.7)"/>
     <use xlink:href="#DejaVuSans-2c" transform="translate(633.662109 0.296875)"/>
     <use xlink:href="#DejaVuSans-Oblique-79" transform="translate(749.872397 0.296875)"/>
     <use xlink:href="#DejaVuSans-Oblique-70" transform="translate(809.052085 -16.109375) scale(0.7)"/>
     <use xlink:href="#DejaVuSans-Oblique-72" transform="translate(853.485679 -16.109375) scale(0.7)"/>
     <use xlink:href="#DejaVuSans-Oblique-65" transform="translate(882.264976 -16.109375) scale(0.7)"/>
     <use xlink:href="#DejaVuSans-Oblique-64" transform="translate(925.331382 -16.109375) scale(0.7)"/>
     <use xlink:href="#DejaVuSans-3d" transform="translate(991.981772 0.296875)"/>
     <use xlink:href="#DejaVuSans-Oblique-79" transform="translate(1095.253257 0.296875)"/>
     <use xlink:href="#DejaVuSans-2b" transform="translate(1173.915366 0.296875)"/>
     <use xlink:href="#DejaVuSans-Oblique-79" transform="translate(1277.186851 0.296875)"/>
     <use xlink:href="#DejaVuSans-Oblique-67" transform="translate(1336.366538 -16.109375) scale(0.7)"/>
    </g>
    <!-- Exemplu: vF=1.07, vS=-0.39 → gF=0.72, gS=-0.04 -->
    <g transform="translate(60.817766 406.620587) scale(0.1 -0.1)">
     <defs>
      <path id="DejaVuSans-45" d="M 628 4666 
L 3578 4666 
L 3578 4134 
L 1259 4134 
L 1259 2753 
L 3481 2753 
L 3481 2222 
L 1259 2222 
L 1259 531 
L 3634 531 
L 3634 0 
L 628 0 
L 628 4666 
z
" transform="scale(0.015625)"/>
      <path id="DejaVuSans-6d" d="M 3328 2828 
Q 3544 3216 3844 3400 
Q 4144 3584 4550 3584 
Q 5097 3584 5394 3201 
Q 5691 2819 5691 2113 
L 5691 0 
L 5113 0 
L 5113 2094 
Q 5113 2597 4934 2840 
Q 4756 3084 4391 3084 
Q 3944 3084 3684 2787 
Q 3425 2491 3425 1978 
L 3425 0 
L 2847 0 
L 2847 2094 
Q 2847 2600 2669 2842 
Q 2491 3084 2119 3084 
Q 1678 3084 1418 2786 
Q 1159 2488 1159 1978 
L 1159 0 
L 581 0 
L 581 3500 
L 1159 3500 
L 1159 2956 
Q 1356 3278 1631 3431 
Q 1906 3584 2284 3584 
Q 2666 3584 2933 3390 
Q 3200 3197 3328 2828 
z
" transform="scale(0.015625)"/>
      <path id="DejaVuSans-37" d="M 525 4666 
L 3525 4666 
L 3525 4397 
L 1831 0 
L 1172 0 
L 2766 4134 
L 525 4134 
L 525 4666 
z
" transform="scale(0.015625)"/>
      <path id="DejaVuSans-2d" d="M 313 2009 
L 1997 2009 
L 1997 1497 
L 313 1497 
L 313 2009 
z
" transform="scale(0.015625)"/>
      <path id="DejaVuSans-39" d="M 703 97 
L 703 672 
Q 941 559 1184 500 
Q 1428 441 1663 441 
Q 2288 441 2617 861 
Q 2947 1281 2994 2138 
Q 2813 1869 2534 1725 
Q 2256 1581 1919 1581 
Q 1219 1581 811 2004 
Q 403 2428 403 3163 
Q 403 3881 828 4315 
Q 1253 4750 1959 4750 
Q 2769 4750 3195 4129 
Q 3622 3509 3622 2328 
Q 3622 1225 3098 567 
Q 2575 -91 1691 -91 
Q 1453 -91 1209 -44 
Q 966 3 703 97 
z
M 1959 2075 
Q 2384 2075 2632 2365 
Q 2881 2656 2881 3163 
Q 2881 3666 2632 3958 
Q 2384 4250 1959 4250 
Q 1534 4250 1286 3958 
Q 1038 3666 1038 3163 
Q 1038 2656 1286 2365 
Q 1534 2075 1959 2075 
z
" transform="scale(0.015625)"/>
      <path id="DejaVuSans-34" d="M 2419 4116 
L 825 1625 
L 2419 1625 
L 2419 4116 
z
M 2253 4666 
L 3047 4666 
L 3047 1625 
L 3713 1625 
L 3713 1100 
L 3047 1100 
L 3047 0 
L 2419 0 
L 2419 1100 
L 313 1100 
L 313 1709 
L 2253 4666 
z
" transform="scale(0.015625)"/>
     </defs>
     <use xlink:href="#DejaVuSans-45"/>
     <use xlink:href="#DejaVuSans-78" transform="translate(63.183594 0)"/>
     <use xlink:href="#DejaVuSans-65" transform="translate(119.238281 0)"/>
     <use xlink:href="#DejaVuSans-6d" transform="translate(180.761719 0)"/>
     <use xlink:href="#DejaVuSans-70" transform="translate(278.173828 0)"/>
     <use xlink:href="#DejaVuSans-6c" transform="translate(341.650391 0)"/>
     <use xlink:href="#DejaVuSans-75" transform="translate(369.433594 0)"/>
     <use xlink:href="#DejaVuSans-3a" transform="translate(432.8125 0)"/>
     <use xlink:href="#DejaVuSans-20" transform="translate(466.503906 0)"/>
     <use xlink:href="#DejaVuSans-76" transform="translate(498.291016 0)"/>
     <use xlink:href="#DejaVuSans-46" transform="translate(557.470703 0)"/>
     <use xlink:href="#DejaVuSans-3d" transform="translate(614.990234 0)"/>
     <use xlink:href="#DejaVuSans-31" transform="translate(698.779297 0)"/>
     <use xlink:href="#DejaVuSans-2e" transform="translate(762.402344 0)"/>
     <use xlink:href="#DejaVuSans-30" transform="translate(794.189453 0)"/>
     <use xlink:href="#DejaVuSans-37" transform="translate(857.8125 0)"/>
     <use xlink:href="#DejaVuSans-2c" transform="translate(921.435547 0)"/>
     <use xlink:href="#DejaVuSans-20" transform="translate(953.222656 0)"/>
     <use xlink:href="#DejaVuSans-76" transform="translate(985.009766 0)"/>
     <use xlink:href="#DejaVuSans-53" transform="translate(1044.189453 0)"/>
     <use xlink:href="#DejaVuSans-3d" transform="translate(1107.666016 0)"/>
     <use xlink:href="#DejaVuSans-2d" transform="translate(1191.455078 0)"/>
     <use xlink:href="#DejaVuSans-30" transform="translate(1227.539062 0)"/>
     <use xlink:href="#DejaVuSans-2e" transform="translate(1291.162109 0)"/>
     <use xlink:href="#DejaVuSans-33" transform="translate(1322.949219 0)"/>
     <use xlink:href="#DejaVuSans-39" transform="translate(1386.572266 0)"/>
     <use xlink:href="#DejaVuSans-20" transform="translate(1450.195312 0)"/>
     <use xlink:href="#DejaVuSans-2192" transform="translate(1481.982422 0)"/>
     <use xlink:href="#DejaVuSans-20" transform="translate(1565.771484 0)"/>
     <use xlink:href="#DejaVuSans-67" transform="translate(1597.558594 0)"/>
     <use xlink:href="#DejaVuSans-46" transform="translate(1661.035156 0)"/>
     <use xlink:href="#DejaVuSans-3d" transform="translate(1718.554688 0)"/>
     <use xlink:href="#DejaVuSans-30" transform="translate(1802.34375 0)"/>
     <use xlink:href="#DejaVuSans-2e" transform="translate(1865.966797 0)"/>
     <use xlink:href="#DejaVuSans-37" transform="translate(1897.753906 0)"/>
     <use xlink:href="#DejaVuSans-32" transform="translate(1961.376953 0)"/>
     <use xlink:href="#DejaVuSans-2c" transform="translate(2025 0)"/>
     <use xlink:href="#DejaVuSans-20" transform="translate(2056.787109 0)"/>
     <use xlink:href="#DejaVuSans-67" transform="translate(2088.574219 0)"/>
     <use xlink:href="#DejaVuSans-53" transform="translate(2152.050781 0)"/>
     <use xlink:href="#DejaVuSans-3d" transform="translate(2215.527344 0)"/>
     <use xlink:href="#DejaVuSans-2d" transform="translate(2299.316406 0)"/>
     <use xlink:href="#DejaVuSans-30" transform="translate(2335.400391 0)"/>
     <use xlink:href="#DejaVuSans-2e" transform="translate(2399.023438 0)"/>
     <use xlink:href="#DejaVuSans-30" transform="translate(2430.810547 0)"/>
     <use xlink:href="#DejaVuSans-34" transform="translate(2494.433594 0)"/>
    </g>
   </g>
   <g id="text_26">
    <!-- 3) Poziția prezisă:  (x_pred, y_pred) = (x, y) + (x_g, y_g) -->
    <g transform="translate(100.361337 16.381875) scale(0.12 -0.12)">
     <use xlink:href="#DejaVuSans-33"/>
     <use xlink:href="#DejaVuSans-29" transform="translate(63.623047 0)"/>
     <use xlink:href="#DejaVuSans-20" transform="translate(102.636719 0)"/>
     <use xlink:href="#DejaVuSans-50" transform="translate(134.423828 0)"/>
     <use xlink:href="#DejaVuSans-6f" transform="translate(191.101562 0)"/>
     <use xlink:href="#DejaVuSans-7a" transform="translate(252.283203 0)"/>
     <use xlink:href="#DejaVuSans-69" transform="translate(304.773438 0)"/>
     <use xlink:href="#DejaVuSans-21b" transform="translate(332.556641 0)"/>
     <use xlink:href="#DejaVuSans-69" transform="translate(371.765625 0)"/>
     <use xlink:href="#DejaVuSans-61" transform="translate(399.548828 0)"/>
     <use xlink:href="#DejaVuSans-20" transform="translate(460.828125 0)"/>
     <use xlink:href="#DejaVuSans-70" transform="translate(492.615234 0)"/>
     <use xlink:href="#DejaVuSans-72" transform="translate(556.091797 0)"/>
     <use xlink:href="#DejaVuSans-65" transform="translate(594.955078 0)"/>
     <use xlink:href="#DejaVuSans-7a" transform="translate(656.478516 0)"/>
     <use xlink:href="#DejaVuSans-69" transform="translate(708.96875 0)"/>
     <use xlink:href="#DejaVuSans-73" transform="translate(736.751953 0)"/>
     <use xlink:href="#DejaVuSans-103" transform="translate(788.851562 0)"/>
     <use xlink:href="#DejaVuSans-3a" transform="translate(850.130859 0)"/>
     <use xlink:href="#DejaVuSans-20" transform="translate(883.822266 0)"/>
     <use xlink:href="#DejaVuSans-20" transform="translate(915.609375 0)"/>
     <use xlink:href="#DejaVuSans-28" transform="translate(947.396484 0)"/>
     <use xlink:href="#DejaVuSans-78" transform="translate(986.410156 0)"/>
     <use xlink:href="#DejaVuSans-5f" transform="translate(1045.589844 0)"/>
     <use xlink:href="#DejaVuSans-70" transform="translate(1095.589844 0)"/>
     <use xlink:href="#DejaVuSans-72" transform="translate(1159.066406 0)"/>
     <use xlink:href="#DejaVuSans-65" transform="translate(1197.929688 0)"/>
     <use xlink:href="#DejaVuSans-64" transform="translate(1259.453125 0)"/>
     <use xlink:href="#DejaVuSans-2c" transform="translate(1322.929688 0)"/>
     <use xlink:href="#DejaVuSans-20" transform="translate(1354.716797 0)"/>
     <use xlink:href="#DejaVuSans-79" transform="translate(1386.503906 0)"/>
     <use xlink:href="#DejaVuSans-5f" transform="translate(1445.683594 0)"/>
     <use xlink:href="#DejaVuSans-70" transform="translate(1495.683594 0)"/>
     <use xlink:href="#DejaVuSans-72" transform="translate(1559.160156 0)"/>
     <use xlink:href="#DejaVuSans-65" transform="translate(1598.023438 0)"/>
     <use xlink:href="#DejaVuSans-64" transform="translate(1659.546875 0)"/>
     <use xlink:href="#DejaVuSans-29" transform="translate(1723.023438 0)"/>
     <use xlink:href="#DejaVuSans-20" transform="translate(1762.037109 0)"/>
     <use xlink:href="#DejaVuSans-3d" transform="translate(1793.824219 0)"/>
     <use xlink:href="#DejaVuSans-20" transform="translate(1877.613281 0)"/>
     <use xlink:href="#DejaVuSans-28" transform="translate(1909.400391 0)"/>
     <use xlink:href="#DejaVuSans-78" transform="translate(1948.414062 0)"/>
     <use xlink:href="#DejaVuSans-2c" transform="translate(2007.59375 0)"/>
     <use xlink:href="#DejaVuSans-20" transform="translate(2039.380859 0)"/>
     <use xlink:href="#DejaVuSans-79" transform="translate(2071.167969 0)"/>
     <use xlink:href="#DejaVuSans-29" transform="translate(2130.347656 0)"/>
     <use xlink:href="#DejaVuSans-20" transform="translate(2169.361328 0)"/>
     <use xlink:href="#DejaVuSans-2b" transform="translate(2201.148438 0)"/>
     <use xlink:href="#DejaVuSans-20" transform="translate(2284.9375 0)"/>
     <use xlink:href="#DejaVuSans-28" transform="translate(2316.724609 0)"/>
     <use xlink:href="#DejaVuSans-78" transform="translate(2355.738281 0)"/>
     <use xlink:href="#DejaVuSans-5f" transform="translate(2414.917969 0)"/>
     <use xlink:href="#DejaVuSans-67" transform="translate(2464.917969 0)"/>
     <use xlink:href="#DejaVuSans-2c" transform="translate(2528.394531 0)"/>
     <use xlink:href="#DejaVuSans-20" transform="translate(2560.181641 0)"/>
     <use xlink:href="#DejaVuSans-79" transform="translate(2591.96875 0)"/>
     <use xlink:href="#DejaVuSans-5f" transform="translate(2651.148438 0)"/>
     <use xlink:href="#DejaVuSans-67" transform="translate(2701.148438 0)"/>
     <use xlink:href="#DejaVuSans-29" transform="translate(2764.625 0)"/>
    </g>
   </g>
  </g>
 </g>
 <defs>
  <clipPath id="p329e2539cc">
   <rect x="52.160938" y="28.381875" width="432.841425" height="388.08"/>
  </clipPath>
 </defs>
</svg>
